<?xml version="1.0" encoding="us-ascii" standalone="no"?><svg xmlns="http://www.w3.org/2000/svg" xmlns:xlink="http://www.w3.org/1999/xlink" contentStyleType="text/css" height="414px" preserveAspectRatio="none" style="width:896px;height:414px;background:#FFFFFF;" version="1.1" viewBox="0 0 896 414" width="896px" zoomAndPan="magnify"><defs/><g><line style="stroke:#181818;stroke-width:0.5;stroke-dasharray:5.0,5.0;" x1="91" x2="91" y1="52.9766" y2="362.7715"/><line style="stroke:#181818;stroke-width:0.5;stroke-dasharray:5.0,5.0;" x1="424.5" x2="424.5" y1="52.9766" y2="362.7715"/><line style="stroke:#181818;stroke-width:0.5;stroke-dasharray:5.0,5.0;" x1="634.5" x2="634.5" y1="52.9766" y2="362.7715"/><line style="stroke:#181818;stroke-width:0.5;stroke-dasharray:5.0,5.0;" x1="832" x2="832" y1="52.9766" y2="362.7715"/><rect fill="#E2E2F0" height="46.9766" rx="2.5" ry="2.5" style="stroke:#181818;stroke-width:0.5;" width="173" x="5" y="5"/><text fill="#000000" font-family="sans-serif" font-size="14" font-weight="bold" lengthAdjust="spacing" textLength="159" x="12" y="25.5352">EHR Launch Simulator</text><text fill="#000000" font-family="sans-serif" font-size="14" lengthAdjust="spacing" textLength="102" x="40.5" y="42.0234">localhost:8010</text><rect fill="#E2E2F0" height="46.9766" rx="2.5" ry="2.5" style="stroke:#181818;stroke-width:0.5;" width="173" x="5" y="361.7715"/><text fill="#000000" font-family="sans-serif" font-size="14" font-weight="bold" lengthAdjust="spacing" textLength="159" x="12" y="382.3066">EHR Launch Simulator</text><text fill="#000000" font-family="sans-serif" font-size="14" lengthAdjust="spacing" textLength="102" x="40.5" y="398.7949">localhost:8010</text><rect fill="#E2E2F0" height="46.9766" rx="2.5" ry="2.5" style="stroke:#181818;stroke-width:0.5;" width="204" x="322.5" y="5"/><text fill="#000000" font-family="sans-serif" font-size="14" font-weight="bold" lengthAdjust="spacing" textLength="156" x="346.5" y="25.5352">CDS App Launch Page</text><text fill="#000000" font-family="sans-serif" font-size="14" lengthAdjust="spacing" textLength="190" x="329.5" y="42.0234">localhost:3000/launch.html</text><rect fill="#E2E2F0" height="46.9766" rx="2.5" ry="2.5" style="stroke:#181818;stroke-width:0.5;" width="204" x="322.5" y="361.7715"/><text fill="#000000" font-family="sans-serif" font-size="14" font-weight="bold" lengthAdjust="spacing" textLength="156" x="346.5" y="382.3066">CDS App Launch Page</text><text fill="#000000" font-family="sans-serif" font-size="14" lengthAdjust="spacing" textLength="190" x="329.5" y="398.7949">localhost:3000/launch.html</text><rect fill="#E2E2F0" height="46.9766" rx="2.5" ry="2.5" style="stroke:#181818;stroke-width:0.5;" width="197" x="536.5" y="5"/><text fill="#000000" font-family="sans-serif" font-size="14" font-weight="bold" lengthAdjust="spacing" textLength="49" x="610.5" y="25.5352">CDS UI</text><text fill="#000000" font-family="sans-serif" font-size="14" lengthAdjust="spacing" textLength="183" x="543.5" y="42.0234">localhost:3000/index.html</text><rect fill="#E2E2F0" height="46.9766" rx="2.5" ry="2.5" style="stroke:#181818;stroke-width:0.5;" width="197" x="536.5" y="361.7715"/><text fill="#000000" font-family="sans-serif" font-size="14" font-weight="bold" lengthAdjust="spacing" textLength="49" x="610.5" y="382.3066">CDS UI</text><text fill="#000000" font-family="sans-serif" font-size="14" lengthAdjust="spacing" textLength="183" x="543.5" y="398.7949">localhost:3000/index.html</text><rect fill="#E2E2F0" height="46.9766" rx="2.5" ry="2.5" style="stroke:#181818;stroke-width:0.5;" width="116" x="774" y="5"/><text fill="#000000" font-family="sans-serif" font-size="14" font-weight="bold" lengthAdjust="spacing" textLength="83" x="790.5" y="25.5352">FHIR Server</text><text fill="#000000" font-family="sans-serif" font-size="14" lengthAdjust="spacing" textLength="102" x="781" y="42.0234">localhost:8080</text><rect fill="#E2E2F0" height="46.9766" rx="2.5" ry="2.5" style="stroke:#181818;stroke-width:0.5;" width="116" x="774" y="361.7715"/><text fill="#000000" font-family="sans-serif" font-size="14" font-weight="bold" lengthAdjust="spacing" textLength="83" x="790.5" y="382.3066">FHIR Server</text><text fill="#000000" font-family="sans-serif" font-size="14" lengthAdjust="spacing" textLength="102" x="781" y="398.7949">localhost:8080</text><line style="stroke:#181818;stroke-width:1.0;" x1="91.5" x2="133.5" y1="84.2871" y2="84.2871"/><line style="stroke:#181818;stroke-width:1.0;" x1="133.5" x2="133.5" y1="84.2871" y2="97.2871"/><line style="stroke:#181818;stroke-width:1.0;" x1="92.5" x2="133.5" y1="97.2871" y2="97.2871"/><polygon fill="#181818" points="102.5,93.2871,92.5,97.2871,102.5,101.2871,98.5,97.2871" style="stroke:#181818;stroke-width:1.0;"/><text fill="#000000" font-family="sans-serif" font-size="13" lengthAdjust="spacing" textLength="319" x="98.5" y="79.5449">Launch triggered via EHR launch simulator website</text><polygon fill="#181818" points="412.5,122.5977,422.5,126.5977,412.5,130.5977,416.5,126.5977" style="stroke:#181818;stroke-width:1.0;"/><line style="stroke:#181818;stroke-width:1.0;" x1="91.5" x2="418.5" y1="126.5977" y2="126.5977"/><text fill="#000000" font-family="sans-serif" font-size="13" lengthAdjust="spacing" textLength="192" x="98.5" y="121.8555">User redirected to launch page</text><polygon fill="#181818" points="102.5,151.9082,92.5,155.9082,102.5,159.9082,98.5,155.9082" style="stroke:#181818;stroke-width:1.0;"/><line style="stroke:#181818;stroke-width:1.0;" x1="96.5" x2="423.5" y1="155.9082" y2="155.9082"/><text fill="#000000" font-family="sans-serif" font-size="13" lengthAdjust="spacing" textLength="197" x="108.5" y="151.166">Log-in request (authentication)</text><line style="stroke:#181818;stroke-width:1.0;" x1="91.5" x2="133.5" y1="185.2188" y2="185.2188"/><line style="stroke:#181818;stroke-width:1.0;" x1="133.5" x2="133.5" y1="185.2188" y2="198.2188"/><line style="stroke:#181818;stroke-width:1.0;" x1="92.5" x2="133.5" y1="198.2188" y2="198.2188"/><polygon fill="#181818" points="102.5,194.2188,92.5,198.2188,102.5,202.2188,98.5,198.2188" style="stroke:#181818;stroke-width:1.0;"/><text fill="#000000" font-family="sans-serif" font-size="13" lengthAdjust="spacing" textLength="201" x="98.5" y="180.4766">EHR simulator: select encounter</text><polygon fill="#181818" points="623,223.5293,633,227.5293,623,231.5293,627,227.5293" style="stroke:#181818;stroke-width:1.0;"/><line style="stroke:#181818;stroke-width:1.0;" x1="91.5" x2="629" y1="227.5293" y2="227.5293"/><text fill="#000000" font-family="sans-serif" font-size="13" lengthAdjust="spacing" textLength="113" x="98.5" y="222.7871">Log-in completed</text><polygon fill="#181818" points="102.5,252.8398,92.5,256.8398,102.5,260.8398,98.5,256.8398" style="stroke:#181818;stroke-width:1.0;"/><line style="stroke:#181818;stroke-width:1.0;" x1="96.5" x2="634" y1="256.8398" y2="256.8398"/><text fill="#000000" font-family="sans-serif" font-size="13" lengthAdjust="spacing" textLength="365" x="108.5" y="252.0977">Access token request (defines permissions/authorization)</text><polygon fill="#181818" points="623,282.1504,633,286.1504,623,290.1504,627,286.1504" style="stroke:#181818;stroke-width:1.0;"/><line style="stroke:#181818;stroke-width:1.0;stroke-dasharray:2.0,2.0;" x1="91.5" x2="629" y1="286.1504" y2="286.1504"/><text fill="#000000" font-family="sans-serif" font-size="13" lengthAdjust="spacing" textLength="145" x="98.5" y="281.4082">Access token response</text><polygon fill="#181818" points="820,311.4609,830,315.4609,820,319.4609,824,315.4609" style="stroke:#181818;stroke-width:1.0;"/><line style="stroke:#181818;stroke-width:1.0;" x1="635" x2="826" y1="315.4609" y2="315.4609"/><text fill="#000000" font-family="sans-serif" font-size="13" lengthAdjust="spacing" textLength="97" x="642" y="310.7188">Request Patient</text><polygon fill="#181818" points="646,340.7715,636,344.7715,646,348.7715,642,344.7715" style="stroke:#181818;stroke-width:1.0;"/><line style="stroke:#181818;stroke-width:1.0;stroke-dasharray:2.0,2.0;" x1="640" x2="831" y1="344.7715" y2="344.7715"/><text fill="#000000" font-family="sans-serif" font-size="13" lengthAdjust="spacing" textLength="173" x="652" y="340.0293">Response with Patient JSON</text><!--SRC=[ROz1Jy9048Nl_HKJJje4gV52UZ0fhGQCKTA6cvTrExOJjxlhxXQClzw5iY38UTxtlJUQ6KUSD9CEHd7yC2_XcVMIjr1Hrmlcb8dZDoaKPw9LrgNJv3OP0RCmY_GfcnSLP5e7ViaQF4NlaYIPYDtrfdMTs6coIvhLuW99iiRl8vYVWu_pHGaLcZN-cpmT9XTHD8FnFSpICD8PQXeqMCEQ66o_7_Q13T_31jyjEHp8B8MLHGEU88FSUT2fm6Z_SPI50jMCIVhWLu_MmHNhNOlIxsMEbBm-3Dbs7ifIi2Yy5b1orKk7PiZb1nzNdHReUwDyByWuHslzZ4_yKrVZ1qcqeD5qPAslj9Fj16NevxXWK9yPhFPX7Fn52kLUkVIOVo0g0bRkax0XruOpF5MlBxy0]--></g></svg>