<?xml version="1.0" encoding="UTF-8" standalone="no"?>
<!DOCTYPE svg PUBLIC "-//W3C//DTD SVG 1.1//EN" "http://www.w3.org/Graphics/SVG/1.1/DTD/svg11.dtd">
<svg xmlns:xl="http://www.w3.org/1999/xlink" xmlns="http://www.w3.org/2000/svg" xmlns:dc="http://purl.org/dc/elements/1.1/" version="1.1" viewBox="59.5 198.36588 905 394.8608" width="905" height="394.8608">
  <defs>
    <marker orient="auto" overflow="visible" markerUnits="strokeWidth" id="FilledArrow_Marker" stroke-linejoin="miter" stroke-miterlimit="10" viewBox="-1 -3 6 6" markerWidth="6" markerHeight="6" color="black">
      <g>
        <path d="M 3.7333333 0 L 0 -1.4 L 0 1.4 Z" fill="currentColor" stroke="currentColor" stroke-width="1"/>
      </g>
    </marker>
    <marker orient="auto" overflow="visible" markerUnits="strokeWidth" id="FilledArrow_Marker_2" stroke-linejoin="miter" stroke-miterlimit="10" viewBox="-5 -3 6 6" markerWidth="6" markerHeight="6" color="black">
      <g>
        <path d="M -3.7333333 0 L 0 1.4 L 0 -1.4 Z" fill="currentColor" stroke="currentColor" stroke-width="1"/>
      </g>
    </marker>
    <marker orient="auto" overflow="visible" markerUnits="strokeWidth" id="FilledArrow_Marker_3" stroke-linejoin="miter" stroke-miterlimit="10" viewBox="-1 -4 10 8" markerWidth="10" markerHeight="8" color="black">
      <g>
        <path d="M 8 0 L 0 -3 L 0 3 Z" fill="currentColor" stroke="currentColor" stroke-width="1"/>
      </g>
    </marker>
    <marker orient="auto" overflow="visible" markerUnits="strokeWidth" id="FilledArrow_Marker_4" stroke-linejoin="miter" stroke-miterlimit="10" viewBox="-9 -4 10 8" markerWidth="10" markerHeight="8" color="black">
      <g>
        <path d="M -8 0 L 0 3 L 0 -3 Z" fill="currentColor" stroke="currentColor" stroke-width="1"/>
      </g>
    </marker>
  </defs>
  <g id="Canvas_1" fill="none" stroke="none" stroke-opacity="1" stroke-dasharray="none" fill-opacity="1">
    <title>Canvas 1</title>
    <rect fill="white" x="59.5" y="198.36588" width="905" height="394.8608"/>
    <g id="Canvas_1_Layer_1">
      <title>Layer 1</title>
      <g id="Group_30">
        <g id="Graphic_29">
          <path d="M 558.5 278.5086 L 748.5 278.5086 C 767.83 278.5086 783.5 294.17865 783.5 313.5086 L 783.5 388 C 783.5 407.32997 767.83 423 748.5 423 L 558.5 423 C 539.17003 423 523.5 407.32997 523.5 388 L 523.5 313.5086 C 523.5 294.17865 539.17003 278.5086 558.5 278.5086 Z" stroke="gray" stroke-linecap="round" stroke-linejoin="round" stroke-width="1"/>
        </g>
        <g id="Graphic_28">
          <rect x="602.708" y="263.5" width="101.584" height="29.46411" fill="white"/>
          <text transform="translate(607.708 268.5)" fill="black">
            <tspan font-family="Helvetica Neue" font-weight="bold" font-size="16" fill="black" x="0" y="16" xml:space="preserve">FHIR Server</tspan>
          </text>
        </g>
      </g>
      <g id="Graphic_26">
        <path d="M 105 223.3745 L 295 223.3745 C 314.32997 223.3745 330 239.04453 330 258.3745 L 330 442.5 C 330 461.82997 314.32997 477.5 295 477.5 L 105 477.5 C 85.67003 477.5 70 461.82997 70 442.5 L 70 258.3745 C 70 239.04453 85.67003 223.3745 105 223.3745 Z" stroke="gray" stroke-linecap="round" stroke-linejoin="round" stroke-width="1"/>
      </g>
      <g id="Graphic_3">
        <text transform="translate(75 553.66667)" fill="#a5a5a5">
          <tspan font-family="Helvetica Neue" font-size="10" fill="#a5a5a5" x="0" y="10" xml:space="preserve">Icon credits: Computer by andriwidodo from Noun Project (CC BY 3.0); Phone by IGraphics from Noun Project (CC BY 3.0); storage by Gregor Cresnar from Noun Project (CC BY 3.0); Machine </tspan>
          <tspan font-family="Helvetica Neue" font-size="10" fill="#a5a5a5" x="0" y="22.28" xml:space="preserve">Learning by Gacem Tachfin from Noun Project (CC BY 3.0); web server by I Putu Kharismayadi from Noun Project (CC BY 3.0)</tspan>
        </text>
      </g>
      <g id="Group_25">
        <g id="Group_5">
          <g id="Graphic_7">
            <path d="M 175.31262 245.0022 C 174.28187 245.0993 173.49556 245.9669 173.50002 247.0022 L 173.50002 301.0647 C 173.50013 302.16924 174.3955 303.0646 175.50002 303.0647 L 259.50002 303.0647 C 260.60454 303.0646 261.4999 302.16924 261.50002 301.0647 L 261.50002 247.0022 C 261.4999 245.89767 260.60454 245.0023 259.50002 245.0022 L 175.50002 245.0022 C 175.43759 244.99927 175.37505 244.99927 175.31262 245.0022 Z M 177.50002 249.0022 L 257.50002 249.0022 L 257.50002 292.2522 L 177.50002 292.2522 L 177.50002 249.0022 Z" fill="black"/>
          </g>
          <g id="Graphic_6">
            <path d="M 208.59382 304.8245 C 208.47665 304.84556 208.3616 304.877 208.25002 304.9185 C 208.07414 304.96823 207.9059 305.0418 207.75002 305.1372 C 207.72904 305.1472 207.70824 305.15752 207.68762 305.1682 C 207.67707 305.17843 207.66664 305.18877 207.65632 305.1992 C 207.61344 305.2289 207.57174 305.26026 207.53132 305.2932 C 207.52077 305.30343 207.51034 305.31377 207.50002 305.3242 C 207.45714 305.3539 207.41544 305.38526 207.37502 305.4182 C 207.37494 305.42855 207.37494 305.4389 207.37502 305.4492 C 207.33153 305.48902 207.28982 305.53073 207.25002 305.5742 C 207.24994 305.58455 207.24994 305.5949 207.25002 305.6052 C 207.20653 305.64502 207.16482 305.68673 207.12502 305.7302 C 207.12494 305.74055 207.12494 305.7509 207.12502 305.7612 C 207.09143 305.81187 207.06016 305.86402 207.03132 305.9175 C 207.03124 305.92785 207.03124 305.9382 207.03132 305.9485 C 206.99773 305.99917 206.96646 306.05132 206.93762 306.1048 C 206.93754 306.11515 206.93754 306.1255 206.93762 306.1358 C 206.89618 306.2474 206.8648 306.36245 206.84382 306.4796 C 206.84374 306.48995 206.84374 306.5003 206.84382 306.5106 C 206.8007 306.71602 206.79016 306.92694 206.81262 307.1356 C 206.77612 307.7093 206.63932 307.944 206.37502 308.2294 C 206.06742 308.5616 205.47112 308.9355 204.68762 309.3544 C 203.90402 309.7733 202.92912 310.2502 202.03132 311.1356 C 201.13352 312.021 200.43682 313.4439 200.46882 315.0419 C 200.48602 316.1342 201.3764 317.01064 202.46882 317.0106 L 217.37502 317.0106 L 217.50002 317.0106 L 217.71882 317.0106 L 232.56262 317.0106 C 233.65503 317.01064 234.5454 316.1342 234.56262 315.0419 C 234.59102 313.4436 233.89862 312.0199 233.00002 311.1356 C 232.10152 310.2514 231.12692 309.7731 230.34382 309.3544 C 229.56072 308.9357 228.96232 308.5605 228.65632 308.2294 C 228.38632 307.937 228.21702 307.7146 228.18762 307.1044 C 228.22716 306.8219 228.20582 306.5342 228.12502 306.2606 C 228.1251 306.2503 228.1251 306.23995 228.12502 306.2296 C 228.10642 306.17666 228.0856 306.1245 228.06262 306.0733 C 228.0627 306.063 228.0627 306.05265 228.06262 306.0423 C 228.03374 305.9888 228.00244 305.93666 227.96882 305.886 C 227.9689 305.8757 227.9689 305.86535 227.96882 305.855 C 227.9392 305.81214 227.9079 305.77044 227.87502 305.73 C 227.8751 305.7197 227.8751 305.70935 227.87502 305.699 C 227.8352 305.65553 227.7935 305.61382 227.75002 305.574 C 227.7501 305.5637 227.7501 305.55335 227.75002 305.543 C 227.7102 305.49953 227.6685 305.45782 227.62502 305.418 C 227.61473 305.40757 227.60433 305.39723 227.59382 305.387 C 227.554 305.34353 227.5123 305.30182 227.46882 305.262 C 227.45842 305.26193 227.44802 305.26193 227.43762 305.262 C 227.40694 305.24047 227.37566 305.2198 227.34382 305.2 C 227.32344 305.1789 227.3026 305.15822 227.28132 305.138 C 227.2409 305.10506 227.1992 305.0737 227.15632 305.044 C 227.14588 305.04393 227.13545 305.04393 227.12502 305.044 C 227.07384 305.02117 227.02173 305.0005 226.96882 304.982 C 226.72153 304.87806 226.45586 304.8249 226.18762 304.8257 C 226.05148 304.8222 225.91534 304.83258 225.78132 304.8567 L 209.18762 304.8567 C 209.0536 304.83258 208.91745 304.8222 208.78132 304.8257 C 208.71885 304.8228 208.65628 304.8228 208.59382 304.8257 Z" fill="black"/>
          </g>
        </g>
        <g id="Graphic_10">
          <path d="M 148.4272 245 L 129.99903 245 C 126.4161 245 123.5 247.9161 123.5 251.49903 L 123.5 290.74997 C 123.5 294.3329 126.4161 297.249 129.99903 297.249 L 148.4272 297.249 C 152.01013 297.249 154.92623 294.3329 154.92623 290.74997 L 154.92623 251.49903 C 154.92623 247.9161 152.01013 245 148.4272 245 Z M 152.78046 290.74997 C 152.78046 293.15053 150.82777 295.10323 148.4272 295.10323 L 129.99903 295.10323 C 127.59847 295.10323 125.64577 293.15053 125.64577 290.74997 L 125.64577 251.49903 C 125.64577 249.09847 127.59847 247.14577 129.99903 247.14577 L 131.60537 247.14577 L 132.9211 248.97506 C 133.64963 249.98823 134.82801 250.59334 136.07806 250.59334 L 142.3442 250.59334 C 143.59225 250.59334 144.77262 249.98823 145.50115 248.97705 L 146.81688 247.14776 L 148.42322 247.14776 C 150.82378 247.14776 152.77648 249.10046 152.77648 251.50102 L 152.77648 290.74997 Z" fill="black"/>
        </g>
        <g id="Graphic_14">
          <text transform="translate(202.828 261.5)" fill="black">
            <tspan font-family="Helvetica Neue" font-size="16" fill="black" x="47961635e-20" y="15" xml:space="preserve">App</tspan>
          </text>
        </g>
        <g id="Graphic_15">
          <text transform="translate(131.36512 261.9005)" fill="black">
            <tspan font-family="Helvetica Neue" font-size="16" fill="black" x="0" y="15" xml:space="preserve">UI</tspan>
          </text>
        </g>
        <g id="Graphic_16">
          <title>Bézier</title>
          <path d="M 134.5 324.4874 C 115.4 324.4874 101 331.0874 101 339.8874 L 101 391.5874 C 101 400.3874 115.4 406.9874 134.5 406.9874 C 153.6 406.9874 168 400.3874 168 391.5874 L 168 339.8874 C 168 331.1874 153.6 324.4874 134.5 324.4874 Z M 163 374.3874 C 163 379.2874 150.8 384.7874 134.5 384.7874 C 118.2 384.7874 106 379.2874 106 374.3874 L 106 365.4874 C 111.8 369.7874 122.2 372.5874 134.5 372.5874 C 146.8 372.5874 157.2 369.7874 163 365.4874 Z M 163 357.1874 C 163 362.0874 150.8 367.5874 134.5 367.5874 C 118.2 367.5874 106 362.0874 106 357.1874 L 106 348.2874 C 111.8 352.5874 122.2 355.3874 134.5 355.3874 C 146.8 355.3874 157.2 352.5874 163 348.2874 Z M 134.5 329.4874 C 150.8 329.4874 163 334.9874 163 339.8874 C 163 344.7874 150.8 350.2874 134.5 350.2874 C 118.2 350.2874 106 344.7874 106 339.8874 C 106 334.9874 118.2 329.4874 134.5 329.4874 Z M 134.5 402.0874 C 118.2 402.0874 106 396.5874 106 391.6874 L 106 382.7874 C 111.8 387.0874 122.2 389.7874 134.5 389.7874 C 146.8 389.7874 157.2 386.9874 163 382.6874 L 163 391.5874 C 163 396.5874 150.8 402.0874 134.5 402.0874 Z" fill="black"/>
        </g>
        <g id="Graphic_19">
          <text transform="translate(79.524 411.9874)" fill="black">
            <tspan font-family="Helvetica Neue" font-size="16" fill="black" x="5684342e-19" y="15" xml:space="preserve">Compute/Store</tspan>
          </text>
        </g>
        <g id="Graphic_21">
          <path d="M 303.591 392.061 C 301.647 392.061 300.023 393.409 299.572 395.215 L 297.12 395.215 L 295.673 391.028 C 295.669 391.017 295.66 391.009 295.655 390.999 C 295.629 390.93 295.586 390.872 295.545 390.811 C 295.513 390.763 295.489 390.711 295.45 390.67 C 295.403 390.62 295.345 390.588 295.288 390.549 C 295.239 390.515 295.195 390.475 295.142 390.449 C 295.087 390.424 295.025 390.417 294.965 390.402 C 294.898 390.384 294.832 390.363 294.761 390.361 C 294.749 390.36 294.74 390.354 294.728 390.354 L 274.123 390.354 C 273.947 389.645 273.598 388.969 273.045 388.416 C 272.26 387.632 271.216 387.2 270.106 387.2 C 269.338 387.2 268.611 387.419 267.97 387.805 L 261.923 381.754 C 262.133 381.405 262.294 381.026 262.395 380.621 L 270.946 380.621 C 271.396 382.429 273.021 383.777 274.967 383.777 C 276.913 383.777 278.537 382.428 278.988 380.621 L 298.841 380.621 C 299.292 382.429 300.916 383.777 302.861 383.777 C 305.153 383.777 307.017 381.913 307.017 379.621 C 307.017 377.329 305.153 375.465 302.861 375.465 C 300.917 375.465 299.293 376.813 298.842 378.621 L 278.986 378.621 C 278.536 376.813 276.911 375.465 274.965 375.465 C 273.019 375.465 271.395 376.813 270.944 378.621 L 262.393 378.621 C 262.292 378.216 262.131 377.836 261.92 377.488 L 267.968 371.439 C 268.609 371.826 269.337 372.045 270.105 372.045 C 271.215 372.045 272.259 371.613 273.045 370.827 C 273.598 370.274 273.946 369.598 274.121 368.889 L 294.723 368.889 C 294.724 368.889 294.725 368.889 294.726 368.889 C 294.849 368.889 294.966 368.86 295.078 368.818 C 295.114 368.804 295.144 368.786 295.178 368.769 C 295.25 368.732 295.317 368.687 295.378 368.634 C 295.408 368.607 295.438 368.581 295.465 368.551 C 295.519 368.491 295.562 368.423 295.601 368.349 C 295.619 368.315 295.64 368.286 295.655 368.25 C 295.659 368.238 295.669 368.229 295.673 368.216 L 297.12 364.029 L 299.572 364.029 C 300.022 365.836 301.646 367.184 303.591 367.184 C 305.883 367.184 307.747 365.32 307.747 363.029 C 307.747 360.737 305.883 358.873 303.591 358.873 C 301.647 358.873 300.023 360.221 299.572 362.029 L 296.407 362.029 C 296.395 362.029 296.385 362.035 296.373 362.036 C 296.305 362.038 296.242 362.059 296.177 362.076 C 296.114 362.092 296.05 362.099 295.992 362.125 C 295.941 362.148 295.9 362.187 295.854 362.218 C 295.794 362.259 295.733 362.293 295.684 362.345 C 295.646 362.385 295.622 362.435 295.592 362.481 C 295.55 362.543 295.505 362.602 295.479 362.673 C 295.474 362.684 295.465 362.691 295.461 362.702 L 294.014 366.889 L 274.123 366.889 C 273.947 366.179 273.599 365.504 273.045 364.95 C 272.503 364.408 271.833 364.049 271.108 363.869 L 271.108 343.979 L 275.294 342.533 C 275.305 342.529 275.312 342.52 275.323 342.516 C 275.392 342.489 275.45 342.446 275.511 342.405 C 275.559 342.373 275.612 342.349 275.653 342.31 C 275.7 342.266 275.73 342.209 275.768 342.156 C 275.805 342.104 275.847 342.057 275.873 342 C 275.896 341.948 275.902 341.891 275.917 341.835 C 275.936 341.763 275.958 341.694 275.96 341.619 C 275.961 341.608 275.967 341.598 275.967 341.587 L 275.967 338.425 C 277.774 337.974 279.121 336.35 279.121 334.405 C 279.121 332.113 277.258 330.249 274.967 330.249 C 272.675 330.249 270.811 332.113 270.811 334.405 C 270.811 336.35 272.16 337.974 273.967 338.425 L 273.967 340.877 L 269.782 342.323 C 269.771 342.327 269.764 342.336 269.753 342.34 C 269.684 342.367 269.626 342.41 269.565 342.451 C 269.517 342.483 269.464 342.507 269.424 342.546 C 269.376 342.59 269.346 342.647 269.308 342.7 C 269.271 342.752 269.229 342.799 269.203 342.857 C 269.18 342.908 269.174 342.965 269.159 343.021 C 269.14 343.093 269.118 343.162 269.116 343.236 C 269.115 343.248 269.109 343.257 269.109 343.268 L 269.109 363.869 C 268.382 364.048 267.711 364.409 267.168 364.952 C 266.383 365.737 265.95 366.78 265.951 367.89 C 265.951 368.657 266.17 369.386 266.556 370.027 L 260.509 376.075 C 260.159 375.864 259.78 375.703 259.374 375.602 L 259.374 367.05 C 261.182 366.599 262.531 364.975 262.531 363.03 C 262.531 361.086 261.183 359.462 259.377 359.011 L 259.377 339.157 C 261.184 338.706 262.531 337.082 262.531 335.137 C 262.531 332.846 260.667 330.982 258.376 330.982 C 256.084 330.982 254.22 332.846 254.22 335.137 C 254.22 337.082 255.568 338.707 257.376 339.158 L 257.376 359.011 C 255.568 359.461 254.219 361.086 254.219 363.032 C 254.219 364.976 255.567 366.601 257.374 367.052 L 257.374 375.604 C 256.969 375.705 256.589 375.867 256.241 376.077 L 250.192 370.028 C 250.579 369.387 250.798 368.658 250.798 367.891 C 250.798 366.781 250.366 365.737 249.581 364.952 C 249.039 364.41 248.369 364.05 247.643 363.871 L 247.643 343.269 C 247.643 343.257 247.637 343.248 247.636 343.236 C 247.634 343.162 247.612 343.093 247.593 343.023 C 247.578 342.967 247.572 342.909 247.549 342.857 C 247.522 342.798 247.479 342.75 247.441 342.697 C 247.404 342.646 247.374 342.591 247.328 342.548 C 247.286 342.508 247.232 342.483 247.182 342.449 C 247.122 342.409 247.066 342.367 246.998 342.341 C 246.987 342.337 246.98 342.328 246.969 342.324 L 242.782 340.878 L 242.782 338.425 C 244.59 337.974 245.938 336.349 245.938 334.405 C 245.938 332.113 244.074 330.249 241.782 330.249 C 239.491 330.249 237.627 332.113 237.627 334.405 C 237.627 336.349 238.975 337.974 240.782 338.425 L 240.782 341.59 C 240.782 341.602 240.788 341.611 240.789 341.623 C 240.791 341.697 240.813 341.766 240.832 341.836 C 240.847 341.892 240.853 341.95 240.876 342.002 C 240.903 342.061 240.946 342.109 240.984 342.162 C 241.021 342.213 241.051 342.268 241.097 342.311 C 241.139 342.351 241.193 342.376 241.243 342.41 C 241.303 342.45 241.359 342.492 241.427 342.518 C 241.438 342.522 241.445 342.531 241.456 342.535 L 245.643 343.981 L 245.643 363.87 C 244.916 364.05 244.246 364.41 243.704 364.953 C 243.15 365.506 242.801 366.182 242.625 366.891 L 222.732 366.891 L 221.285 362.704 C 221.281 362.693 221.272 362.686 221.268 362.675 C 221.242 362.606 221.198 362.549 221.158 362.488 C 221.126 362.44 221.102 362.387 221.062 362.346 C 221.016 362.297 220.958 362.264 220.902 362.226 C 220.853 362.191 220.809 362.151 220.754 362.126 C 220.697 362.1 220.634 362.093 220.573 362.078 C 220.507 362.062 220.444 362.04 220.375 362.038 C 220.363 362.038 220.353 362.031 220.34 362.031 L 217.176 362.031 C 216.725 360.224 215.101 358.876 213.156 358.876 C 210.864 358.876 209 360.74 209 363.031 C 209 365.322 210.864 367.186 213.156 367.186 C 215.1 367.186 216.725 365.838 217.176 364.031 L 219.628 364.031 L 221.075 368.218 C 221.079 368.231 221.088 368.239 221.093 368.252 C 221.107 368.288 221.128 368.316 221.145 368.35 C 221.184 368.425 221.228 368.494 221.283 368.555 C 221.31 368.585 221.338 368.61 221.368 368.637 C 221.43 368.691 221.496 368.736 221.569 368.773 C 221.602 368.79 221.632 368.809 221.668 368.822 C 221.78 368.864 221.897 368.893 222.02 368.893 C 222.021 368.893 222.022 368.893 222.023 368.893 L 242.624 368.893 C 242.799 369.602 243.149 370.278 243.703 370.831 C 244.488 371.616 245.531 372.048 246.641 372.048 C 247.408 372.048 248.137 371.829 248.777 371.443 L 254.826 377.493 C 254.616 377.842 254.455 378.221 254.354 378.625 L 245.801 378.625 C 245.35 376.817 243.726 375.469 241.781 375.469 C 239.836 375.469 238.212 376.817 237.761 378.625 L 217.908 378.625 C 217.457 376.817 215.833 375.469 213.888 375.469 C 211.597 375.469 209.733 377.333 209.733 379.625 C 209.733 381.917 211.597 383.781 213.888 383.781 C 215.833 383.781 217.457 382.432 217.908 380.625 L 237.762 380.625 C 238.213 382.433 239.837 383.781 241.782 383.781 C 243.727 383.781 245.351 382.432 245.802 380.625 L 254.355 380.625 C 254.456 381.03 254.617 381.408 254.827 381.757 L 248.777 387.807 C 248.137 387.421 247.409 387.203 246.642 387.203 C 245.532 387.203 244.489 387.635 243.703 388.419 C 243.15 388.973 242.801 389.648 242.626 390.358 L 222.02 390.358 C 222.008 390.358 221.998 390.365 221.985 390.365 C 221.914 390.368 221.849 390.389 221.781 390.406 C 221.721 390.421 221.66 390.427 221.606 390.453 C 221.549 390.478 221.503 390.52 221.453 390.557 C 221.399 390.595 221.342 390.626 221.297 390.674 C 221.258 390.715 221.234 390.767 221.202 390.815 C 221.161 390.877 221.118 390.934 221.091 391.003 C 221.087 391.015 221.078 391.022 221.074 391.032 L 219.628 395.22 L 217.176 395.22 C 216.725 393.412 215.101 392.064 213.156 392.064 C 210.864 392.064 209 393.928 209 396.22 C 209 398.511 210.864 400.374 213.156 400.374 C 215.1 400.374 216.725 399.026 217.176 397.22 L 220.341 397.22 C 220.463 397.22 220.58 397.192 220.691 397.15 C 220.728 397.135 220.759 397.117 220.794 397.099 C 220.865 397.062 220.93 397.019 220.991 396.965 C 221.022 396.939 221.051 396.912 221.079 396.881 C 221.133 396.821 221.175 396.754 221.214 396.681 C 221.232 396.647 221.254 396.617 221.268 396.579 C 221.273 396.567 221.282 396.558 221.286 396.546 L 222.732 392.358 L 242.626 392.358 C 242.801 393.067 243.15 393.743 243.704 394.296 C 244.246 394.839 244.916 395.199 245.642 395.378 L 245.642 415.269 L 241.456 416.714 C 241.445 416.718 241.438 416.727 241.427 416.731 C 241.357 416.758 241.298 416.802 241.237 416.843 C 241.19 416.875 241.138 416.899 241.098 416.937 C 241.05 416.983 241.018 417.041 240.979 417.095 C 240.943 417.146 240.902 417.191 240.876 417.246 C 240.852 417.299 240.846 417.358 240.831 417.416 C 240.813 417.485 240.791 417.553 240.788 417.626 C 240.788 417.638 240.782 417.647 240.782 417.659 L 240.782 420.824 C 238.974 421.274 237.626 422.899 237.626 424.845 C 237.626 427.136 239.49 428.999 241.782 428.999 C 244.073 428.999 245.937 427.136 245.937 424.845 C 245.937 422.9 244.589 421.275 242.782 420.824 L 242.782 418.372 L 246.968 416.927 C 246.979 416.923 246.986 416.914 246.997 416.91 C 247.067 416.883 247.125 416.839 247.187 416.798 C 247.234 416.767 247.286 416.742 247.326 416.704 C 247.374 416.658 247.406 416.6 247.445 416.546 C 247.481 416.496 247.522 416.45 247.548 416.395 C 247.572 416.342 247.578 416.283 247.593 416.225 C 247.611 416.156 247.633 416.088 247.635 416.015 C 247.635 416.003 247.642 415.994 247.642 415.982 L 247.642 395.375 C 248.368 395.196 249.038 394.836 249.58 394.293 C 250.955 392.919 251.15 390.816 250.191 389.219 L 256.24 383.17 C 256.589 383.381 256.969 383.542 257.374 383.644 L 257.374 392.195 C 255.567 392.645 254.219 394.27 254.219 396.216 C 254.219 398.162 255.567 399.786 257.374 400.237 L 257.374 420.091 C 255.567 420.541 254.219 422.166 254.219 424.112 C 254.219 426.403 256.083 428.266 258.374 428.266 C 260.666 428.266 262.531 426.403 262.531 424.112 C 262.531 422.167 261.182 420.542 259.374 420.091 L 259.374 400.235 C 261.182 399.785 262.531 398.16 262.531 396.214 C 262.531 394.268 261.182 392.644 259.374 392.193 L 259.374 383.643 C 259.78 383.541 260.16 383.38 260.509 383.169 L 266.556 389.219 C 266.169 389.859 265.951 390.587 265.951 391.355 C 265.951 392.465 266.383 393.508 267.167 394.292 C 267.71 394.835 268.381 395.196 269.107 395.376 L 269.107 415.978 C 269.107 415.99 269.113 415.999 269.114 416.011 C 269.116 416.084 269.138 416.152 269.156 416.222 C 269.171 416.279 269.177 416.338 269.202 416.391 C 269.227 416.448 269.269 416.494 269.306 416.544 C 269.344 416.598 269.375 416.655 269.423 416.7 C 269.463 416.738 269.515 416.763 269.563 416.794 C 269.625 416.835 269.682 416.879 269.753 416.906 C 269.764 416.91 269.771 416.919 269.781 416.923 L 273.969 418.368 L 273.969 420.82 C 272.161 421.27 270.813 422.895 270.813 424.841 C 270.813 427.132 272.677 428.995 274.969 428.995 C 277.26 428.995 279.123 427.132 279.123 424.841 C 279.123 422.896 277.775 421.271 275.969 420.82 L 275.969 417.655 C 275.969 417.643 275.963 417.634 275.962 417.622 C 275.96 417.549 275.938 417.482 275.92 417.412 C 275.905 417.354 275.899 417.295 275.874 417.242 C 275.849 417.185 275.808 417.14 275.771 417.09 C 275.733 417.035 275.701 416.979 275.653 416.933 C 275.613 416.895 275.561 416.871 275.514 416.839 C 275.451 416.798 275.394 416.754 275.323 416.727 C 275.312 416.723 275.305 416.714 275.295 416.71 L 271.107 415.265 L 271.107 395.375 C 271.833 395.195 272.503 394.835 273.046 394.292 C 273.599 393.739 273.948 393.064 274.123 392.354 L 294.015 392.354 L 295.462 396.541 C 295.466 396.554 295.476 396.562 295.481 396.575 C 295.495 396.61 295.515 396.639 295.533 396.673 C 295.572 396.747 295.616 396.816 295.67 396.875 C 295.697 396.906 295.727 396.933 295.758 396.959 C 295.819 397.013 295.884 397.056 295.955 397.093 C 295.989 397.111 296.021 397.13 296.058 397.144 C 296.17 397.186 296.287 397.214 296.409 397.214 L 299.574 397.214 C 300.024 399.022 301.648 400.37 303.593 400.37 C 305.885 400.37 307.749 398.506 307.749 396.214 C 307.747 393.924 305.883 392.061 303.591 392.061 Z M 258.374 381.779 C 257.186 381.779 256.219 380.812 256.219 379.623 C 256.219 378.434 257.186 377.467 258.374 377.467 C 259.563 377.467 260.53 378.434 260.53 379.623 C 260.53 380.812 259.563 381.779 258.374 381.779 Z M 302.858 377.467 C 304.046 377.467 305.014 378.434 305.014 379.623 C 305.014 380.812 304.046 381.779 302.858 381.779 C 301.67 381.779 300.704 380.812 300.704 379.623 C 300.704 378.434 301.671 377.467 302.858 377.467 Z M 274.966 377.467 C 276.154 377.467 277.122 378.434 277.122 379.623 C 277.122 380.812 276.154 381.779 274.966 381.779 C 273.778 381.779 272.81 380.812 272.81 379.623 C 272.81 378.434 273.777 377.467 274.966 377.467 Z M 303.591 360.875 C 304.779 360.875 305.747 361.842 305.747 363.031 C 305.747 364.22 304.779 365.186 303.591 365.186 C 302.403 365.186 301.437 364.219 301.437 363.031 C 301.437 361.843 302.403 360.875 303.591 360.875 Z M 272.812 334.405 C 272.812 333.217 273.78 332.249 274.968 332.249 C 276.156 332.249 277.122 333.216 277.122 334.405 C 277.122 335.594 276.155 336.56 274.968 336.56 C 273.779 336.561 272.812 335.594 272.812 334.405 Z M 268.581 366.367 C 268.988 365.96 269.529 365.736 270.105 365.736 L 270.106 365.736 C 270.107 365.736 270.107 365.736 270.108 365.736 C 270.108 365.736 270.108 365.736 270.109 365.736 C 270.683 365.737 271.225 365.961 271.631 366.367 C 272.05 366.787 272.26 367.339 272.26 367.89 C 272.26 367.89 272.26 367.89 272.26 367.891 C 272.26 367.892 272.26 367.891 272.26 367.891 C 272.26 368.443 272.05 368.995 271.631 369.415 C 270.817 370.229 269.395 370.229 268.58 369.415 C 268.173 369.008 267.949 368.466 267.949 367.89 C 267.95 367.315 268.174 366.774 268.581 366.367 Z M 256.22 335.137 C 256.22 333.949 257.187 332.982 258.376 332.982 C 259.564 332.982 260.531 333.949 260.531 335.137 C 260.531 336.325 259.563 337.293 258.375 337.293 C 257.187 337.293 256.22 336.326 256.22 335.137 Z M 256.218 363.031 C 256.218 361.843 257.185 360.876 258.373 360.876 C 259.562 360.876 260.53 361.843 260.53 363.031 C 260.53 364.219 259.562 365.186 258.374 365.186 C 257.185 365.186 256.218 364.219 256.218 363.031 Z M 239.627 334.405 C 239.627 333.217 240.594 332.249 241.782 332.249 C 242.97 332.249 243.938 333.216 243.938 334.405 C 243.938 335.594 242.971 336.56 241.782 336.56 C 240.593 336.56 239.627 335.594 239.627 334.405 Z M 213.156 365.186 C 211.968 365.186 211 364.219 211 363.031 C 211 361.843 211.967 360.876 213.156 360.876 C 214.344 360.876 215.311 361.843 215.311 363.031 C 215.311 364.219 214.344 365.186 213.156 365.186 Z M 245.117 369.415 C 244.277 368.574 244.277 367.207 245.117 366.366 C 245.524 365.959 246.065 365.735 246.64 365.735 C 246.641 365.735 246.641 365.735 246.642 365.735 C 246.643 365.735 246.643 365.735 246.643 365.735 C 247.218 365.735 247.759 365.959 248.165 366.365 C 248.572 366.772 248.796 367.314 248.796 367.89 C 248.796 368.466 248.571 369.008 248.164 369.415 C 247.352 370.23 245.932 370.229 245.117 369.415 Z M 213.888 381.779 C 212.7 381.779 211.733 380.812 211.733 379.623 C 211.733 378.434 212.7 377.467 213.888 377.467 C 215.076 377.467 216.043 378.435 216.043 379.623 C 216.043 380.811 215.077 381.779 213.888 381.779 Z M 241.782 381.779 C 240.594 381.779 239.627 380.812 239.627 379.623 C 239.627 378.434 240.594 377.467 241.782 377.467 C 242.97 377.467 243.937 378.434 243.937 379.623 C 243.937 380.812 242.97 381.779 241.782 381.779 Z M 213.156 398.371 C 211.968 398.371 211 397.404 211 396.217 C 211 395.029 211.967 394.061 213.156 394.061 C 214.344 394.061 215.311 395.029 215.311 396.217 C 215.311 397.404 214.344 398.371 213.156 398.371 Z M 243.937 424.842 C 243.937 426.03 242.97 426.996 241.782 426.996 C 240.594 426.996 239.626 426.029 239.626 424.842 C 239.626 423.654 240.593 422.686 241.782 422.686 C 242.97 422.686 243.937 423.653 243.937 424.842 Z M 248.165 392.879 C 247.352 393.694 245.932 393.692 245.117 392.879 C 244.277 392.039 244.278 390.671 245.117 389.831 C 245.524 389.424 246.066 389.2 246.642 389.2 C 247.218 389.2 247.759 389.424 248.165 389.83 C 249.005 390.671 249.006 392.039 248.165 392.879 Z M 260.53 424.109 C 260.53 425.297 259.562 426.263 258.373 426.263 C 257.185 426.263 256.218 425.296 256.218 424.109 C 256.218 422.921 257.185 421.953 258.373 421.953 C 259.562 421.953 260.53 422.921 260.53 424.109 Z M 260.53 396.215 C 260.53 397.403 259.562 398.371 258.373 398.371 C 257.185 398.371 256.218 397.403 256.218 396.215 C 256.218 395.027 257.185 394.059 258.373 394.059 C 259.562 394.059 260.53 395.026 260.53 396.215 Z M 277.122 424.842 C 277.122 426.03 276.155 426.996 274.968 426.996 C 273.78 426.996 272.812 426.029 272.812 424.842 C 272.812 423.654 273.78 422.686 274.968 422.686 C 276.155 422.686 277.122 423.653 277.122 424.842 Z M 268.581 392.878 C 268.174 392.472 267.95 391.932 267.95 391.357 C 267.95 390.781 268.174 390.24 268.581 389.833 C 268.988 389.426 269.529 389.202 270.105 389.202 C 270.681 389.202 271.224 389.426 271.63 389.832 C 272.05 390.253 272.26 390.805 272.26 391.356 C 272.26 391.908 272.05 392.46 271.631 392.879 C 270.816 393.695 269.398 393.696 268.581 392.878 Z M 303.591 398.371 C 302.403 398.371 301.437 397.403 301.437 396.215 C 301.437 395.027 302.404 394.061 303.591 394.061 C 304.779 394.061 305.747 395.028 305.747 396.215 C 305.747 397.403 304.779 398.371 303.591 398.371 Z" fill="black"/>
        </g>
        <g id="Graphic_24">
          <text transform="translate(237 431.3831)" fill="black">
            <tspan font-family="Helvetica Neue" font-size="16" fill="black" x="0" y="15" xml:space="preserve">AI/ML</tspan>
          </text>
        </g>
      </g>
      <g id="Graphic_27">
        <rect x="147.464" y="208.36588" width="105.072" height="29.46411" fill="white"/>
        <text transform="translate(152.464 213.36588)" fill="black">
          <tspan font-family="Helvetica Neue" font-weight="bold" font-size="16" fill="black" x="5684342e-20" y="16" xml:space="preserve">FHIR Clients</tspan>
        </text>
      </g>
      <g id="Line_31">
        <path d="M 345.9 350.43725 L 352.9 350.43725 L 500.6 350.7543 L 507.6 350.7543" marker-end="url(#FilledArrow_Marker)" marker-start="url(#FilledArrow_Marker_2)" stroke="black" stroke-linecap="round" stroke-linejoin="miter" stroke-width="3"/>
      </g>
      <g id="Group_57">
        <g id="Graphic_45">
          <path d="M 687.3055 325.3617 C 685.26234 322.0183 681.7332 319.78938 677.6468 319.78938 C 676.7181 319.78938 675.9751 319.97512 675.0464 320.16086 C 670.96 311.9881 662.7872 306.78725 653.5 306.78725 C 645.1415 306.78725 637.52596 311.05937 633.0681 318.11767 C 632.3251 317.93193 631.7679 317.93193 631.2106 317.93193 C 626.3813 317.93193 622.2949 320.90384 620.6232 325.3617 C 620.43744 325.3617 620.2517 325.3617 620.06596 325.3617 C 607.99255 325.3617 597.7766 335.94916 597.7766 348.5798 C 597.7766 361.21044 607.99255 371.7979 620.06596 371.7979 L 627.49574 371.7979 L 627.49574 373.65534 C 627.49574 375.1413 628.053 376.4415 628.79596 377.37023 C 627.8672 378.29895 627.49574 379.59917 627.49574 381.08512 L 627.49574 388.5149 C 627.49574 391.67257 629.9104 394.08725 633.0681 394.08725 L 675.7894 394.08725 C 678.947 394.08725 681.3617 391.67257 681.3617 388.5149 L 681.3617 381.08512 C 681.3617 379.59917 680.8045 378.29895 680.0615 377.37023 C 680.9902 376.4415 681.3617 375.1413 681.3617 373.65534 L 681.3617 371.7979 L 686.93404 371.7979 C 699.00745 371.7979 709.2234 361.21044 709.2234 348.5798 C 709.2234 336.1349 699.1932 325.54746 687.3055 325.3617 Z M 631.2106 358.79576 L 631.2106 351.36597 C 631.2106 350.2515 631.9536 349.50853 633.0681 349.50853 L 675.7894 349.50853 C 676.9038 349.50853 677.6468 350.2515 677.6468 351.36597 L 677.6468 358.79576 C 677.6468 359.91023 676.9038 360.6532 675.7894 360.6532 L 633.0681 360.6532 C 631.9536 360.6532 631.2106 359.91023 631.2106 358.79576 Z M 677.6468 388.5149 C 677.6468 389.6294 676.9038 390.37236 675.7894 390.37236 L 633.0681 390.37236 C 631.9536 390.37236 631.2106 389.6294 631.2106 388.5149 L 631.2106 381.08512 C 631.2106 379.97066 631.9536 379.2277 633.0681 379.2277 L 675.7894 379.2277 C 676.9038 379.2277 677.6468 379.97066 677.6468 381.08512 Z M 677.6468 373.65534 C 677.6468 374.7698 676.9038 375.5128 675.7894 375.5128 L 633.0681 375.5128 C 631.9536 375.5128 631.2106 374.7698 631.2106 373.65534 L 631.2106 366.22555 C 631.2106 365.1111 631.9536 364.3681 633.0681 364.3681 L 675.7894 364.3681 C 676.9038 364.3681 677.6468 365.1111 677.6468 366.22555 Z M 686.93404 368.083 L 681.3617 368.083 L 681.3617 366.22555 C 681.3617 364.7396 680.8045 363.4394 680.0615 362.51066 C 680.9902 361.58193 681.3617 360.2817 681.3617 358.79576 L 681.3617 351.36597 C 681.3617 348.2083 678.947 345.79363 675.7894 345.79363 L 633.0681 345.79363 C 629.9104 345.79363 627.49574 348.2083 627.49574 351.36597 L 627.49574 358.79576 C 627.49574 360.2817 628.053 361.58193 628.79596 362.51066 C 627.8672 363.4394 627.49574 364.7396 627.49574 366.22555 L 627.49574 368.083 L 620.06596 368.083 C 610.03574 368.083 601.4915 359.16725 601.4915 348.5798 C 601.4915 337.99236 610.03574 329.0766 620.06596 329.0766 C 620.6232 329.0766 621.3662 329.0766 621.9234 329.26235 L 623.5951 329.4481 L 623.9666 327.7764 C 624.7096 324.24725 627.6815 321.83257 631.2106 321.83257 C 631.9536 321.83257 632.51085 322.0183 633.4396 322.20406 L 634.9255 322.57555 L 635.6685 321.27533 C 639.19766 314.58852 646.0702 310.50214 653.5 310.50214 C 661.8585 310.50214 669.10255 315.51725 672.44596 323.13278 L 673.1889 324.8045 L 674.8606 324.0615 C 675.7894 323.69 676.7181 323.50427 677.6468 323.50427 C 680.6187 323.50427 683.21915 325.17597 684.5194 327.96214 L 685.0766 329.0766 L 686.7483 329.0766 C 686.93404 329.0766 686.93404 329.0766 687.1198 329.0766 C 697.15 329.0766 705.6943 337.99236 705.6943 348.5798 C 705.6943 359.16725 696.96426 368.083 686.93404 368.083 Z" fill="black"/>
        </g>
        <g id="Graphic_46">
          <circle cx="660.9298" cy="356.9383" r="1.85744990328356" fill="black"/>
        </g>
        <g id="Graphic_47">
          <circle cx="666.5021" cy="356.9383" r="1.85744990328355" fill="black"/>
        </g>
        <g id="Graphic_48">
          <circle cx="672.0745" cy="356.9383" r="1.85744990328356" fill="black"/>
        </g>
        <g id="Graphic_49">
          <circle cx="660.9298" cy="371.7979" r="1.85744990328355" fill="black"/>
        </g>
        <g id="Graphic_50">
          <circle cx="666.5021" cy="371.7979" r="1.85744990328354" fill="black"/>
        </g>
        <g id="Graphic_51">
          <circle cx="672.0745" cy="371.7979" r="1.85744990328355" fill="black"/>
        </g>
        <g id="Graphic_52">
          <circle cx="660.9298" cy="386.65747" r="1.85744990328355" fill="black"/>
        </g>
        <g id="Graphic_53">
          <circle cx="666.5021" cy="386.65747" r="1.85744990328355" fill="black"/>
        </g>
        <g id="Graphic_54">
          <circle cx="672.0745" cy="386.65747" r="1.85744990328355" fill="black"/>
        </g>
      </g>
      <g id="Graphic_59">
        <text transform="translate(338.598 319)" fill="black">
          <tspan font-family="Helvetica Neue" font-weight="bold" font-size="16" fill="black" x="42632564e-21" y="16" xml:space="preserve">RESTful API over HTTP</tspan>
        </text>
      </g>
      <g id="Graphic_60">
        <text transform="translate(347.25 360)" fill="black">
          <tspan font-family="Helvetica Neue" font-style="italic" font-size="16" fill="black" x="12.524" y="15" xml:space="preserve">Standardized FHIR </tspan>
          <tspan font-family="Helvetica Neue" font-style="italic" font-size="16" fill="black" x="24.972" y="33.448" xml:space="preserve">resources (data </tspan>
          <tspan font-family="Helvetica Neue" font-style="italic" font-size="16" fill="black" x="3.204" y="51.895996" xml:space="preserve">objects) are sent over </tspan>
          <tspan font-family="Helvetica Neue" font-style="italic" font-size="16" fill="black" x="51.348" y="70.34399" xml:space="preserve">the wire</tspan>
        </text>
      </g>
      <g id="Graphic_61">
        <text transform="translate(88.3875 480.104)" fill="black">
          <tspan font-family="Helvetica Neue" font-style="italic" font-size="16" fill="black" x="28.172503" y="15" xml:space="preserve">Can both consume and </tspan>
          <tspan font-family="Helvetica Neue" font-style="italic" font-size="16" fill="black" x="44.036503" y="33.448" xml:space="preserve">produce FHIR data</tspan>
        </text>
      </g>
      <g id="Graphic_62">
        <path d="M 875 270.49362 L 875 221.29362 C 875 217.89882 892.696 215.14362 914.5 215.14362 C 936.304 215.14362 954 217.89882 954 221.29362 L 954 270.49362 C 954 273.88842 936.304 276.64362 914.5 276.64362 C 892.696 276.64362 875 273.88842 875 270.49362" fill="white"/>
        <path d="M 875 270.49362 L 875 221.29362 C 875 217.89882 892.696 215.14362 914.5 215.14362 C 936.304 215.14362 954 217.89882 954 221.29362 L 954 270.49362 C 954 273.88842 936.304 276.64362 914.5 276.64362 C 892.696 276.64362 875 273.88842 875 270.49362 M 875 221.29362 C 875 224.68842 892.696 227.44362 914.5 227.44362 C 936.304 227.44362 954 224.68842 954 221.29362" stroke="gray" stroke-linecap="round" stroke-linejoin="round" stroke-width="1"/>
        <text transform="translate(880 230.54863)" fill="black">
          <tspan font-family="Helvetica Neue" font-size="10" fill="black" x="12.37" y="10" xml:space="preserve">Electronic </tspan>
          <tspan font-family="Helvetica Neue" font-size="10" fill="black" x="2.46" y="22.28" xml:space="preserve">Health Record </tspan>
          <tspan font-family="Helvetica Neue" font-size="10" fill="black" x="21.82" y="34.559998" xml:space="preserve">(EHR)</tspan>
        </text>
      </g>
      <g id="Graphic_66">
        <path d="M 875 345.62215 L 875 288.75235 C 875 284.82833 892.696 281.64362 914.5 281.64362 C 936.304 281.64362 954 284.82833 954 288.75235 L 954 345.62215 C 954 349.54617 936.304 352.73088 914.5 352.73088 C 892.696 352.73088 875 349.54617 875 345.62215" fill="white"/>
        <path d="M 875 345.62215 L 875 288.75235 C 875 284.82833 892.696 281.64362 914.5 281.64362 C 936.304 281.64362 954 284.82833 954 288.75235 L 954 345.62215 C 954 349.54617 936.304 352.73088 914.5 352.73088 C 892.696 352.73088 875 349.54617 875 345.62215 M 875 288.75235 C 875 292.67637 892.696 295.86107 914.5 295.86107 C 936.304 295.86107 954 292.67637 954 288.75235" stroke="gray" stroke-linecap="round" stroke-linejoin="round" stroke-width="1"/>
        <text transform="translate(880 296.1816)" fill="black">
          <tspan font-family="Helvetica Neue" font-size="10" fill="black" x="10.24" y="10" xml:space="preserve">Laboratory </tspan>
          <tspan font-family="Helvetica Neue" font-size="10" fill="black" x="9.125" y="22.28" xml:space="preserve">Information  </tspan>
          <tspan font-family="Helvetica Neue" font-size="10" fill="black" x="5.135" y="34.559998" xml:space="preserve">Management </tspan>
          <tspan font-family="Helvetica Neue" font-size="10" fill="black" x="17.735" y="46.839996" xml:space="preserve">System</tspan>
        </text>
      </g>
      <g id="Graphic_67">
        <path d="M 875 413.0809 L 875 363.88088 C 875 360.48608 892.696 357.73088 914.5 357.73088 C 936.304 357.73088 954 360.48608 954 363.88088 L 954 413.0809 C 954 416.4757 936.304 419.2309 914.5 419.2309 C 892.696 419.2309 875 416.4757 875 413.0809" fill="white"/>
        <path d="M 875 413.0809 L 875 363.88088 C 875 360.48608 892.696 357.73088 914.5 357.73088 C 936.304 357.73088 954 360.48608 954 363.88088 L 954 413.0809 C 954 416.4757 936.304 419.2309 914.5 419.2309 C 892.696 419.2309 875 416.4757 875 413.0809 M 875 363.88088 C 875 367.27568 892.696 370.03088 914.5 370.03088 C 936.304 370.03088 954 367.27568 954 363.88088" stroke="gray" stroke-linecap="round" stroke-linejoin="round" stroke-width="1"/>
        <text transform="translate(880 379.2759)" fill="black">
          <tspan font-family="Helvetica Neue" font-size="10" fill="black" x="2.735" y="10" xml:space="preserve">Administrative </tspan>
          <tspan font-family="Helvetica Neue" font-size="10" fill="black" x="17.735" y="22.28" xml:space="preserve">System</tspan>
        </text>
      </g>
      <g id="Graphic_68">
        <path d="M 875 479.5809 L 875 430.3809 C 875 426.9861 892.696 424.2309 914.5 424.2309 C 936.304 424.2309 954 426.9861 954 430.3809 L 954 479.5809 C 954 482.9757 936.304 485.7309 914.5 485.7309 C 892.696 485.7309 875 482.9757 875 479.5809" fill="white"/>
        <path d="M 875 479.5809 L 875 430.3809 C 875 426.9861 892.696 424.2309 914.5 424.2309 C 936.304 424.2309 954 426.9861 954 430.3809 L 954 479.5809 C 954 482.9757 936.304 485.7309 914.5 485.7309 C 892.696 485.7309 875 482.9757 875 479.5809 M 875 430.3809 C 875 433.7757 892.696 436.5309 914.5 436.5309 C 936.304 436.5309 954 433.7757 954 430.3809" stroke="gray" stroke-linecap="round" stroke-linejoin="round" stroke-width="1"/>
        <text transform="translate(880 445.7759)" fill="black">
          <tspan font-family="Helvetica Neue" font-size="10" fill="black" x="3.385" y="10" xml:space="preserve">PACS System </tspan>
          <tspan font-family="Helvetica Neue" font-size="10" fill="black" x="15.61" y="22.28" xml:space="preserve">(Images)</tspan>
        </text>
      </g>
      <g id="Line_70">
        <line x1="790.3778" y1="297.97685" x2="866.5689" y2="251.08277" marker-end="url(#FilledArrow_Marker_3)" marker-start="url(#FilledArrow_Marker_4)" stroke="black" stroke-linecap="round" stroke-linejoin="miter" stroke-width="1"/>
      </g>
      <g id="Line_71">
        <line x1="793.3472" y1="325.6516" x2="865.1528" y2="318.20804" marker-end="url(#FilledArrow_Marker_3)" marker-start="url(#FilledArrow_Marker_4)" stroke="black" stroke-linecap="round" stroke-linejoin="miter" stroke-width="1"/>
      </g>
      <g id="Line_72">
        <line x1="793.1183" y1="353.8558" x2="865.8817" y2="384.62507" marker-end="url(#FilledArrow_Marker_3)" marker-start="url(#FilledArrow_Marker_4)" stroke="black" stroke-linecap="round" stroke-linejoin="miter" stroke-width="1"/>
      </g>
      <g id="Line_73">
        <line x1="790.9472" y1="381.3592" x2="867.5528" y2="448.4579" marker-end="url(#FilledArrow_Marker_3)" marker-start="url(#FilledArrow_Marker_4)" stroke="black" stroke-linecap="round" stroke-linejoin="miter" stroke-width="1"/>
      </g>
      <g id="Graphic_74">
        <text transform="translate(741.5 428)" fill="black">
          <tspan font-family="Helvetica Neue" font-style="italic" font-size="16" fill="black" x="29.852" y="15" xml:space="preserve">Data are </tspan>
          <tspan font-family="Helvetica Neue" font-style="italic" font-size="16" fill="black" x="1.708" y="33.448" xml:space="preserve">mapped to/from </tspan>
          <tspan font-family="Helvetica Neue" font-style="italic" font-size="16" fill="black" x="28.092" y="51.895996" xml:space="preserve">the FHIR </tspan>
          <tspan font-family="Helvetica Neue" font-style="italic" font-size="16" fill="black" x="27.036" y="70.34399" xml:space="preserve">Standard</tspan>
        </text>
      </g>
    </g>
  </g>
</svg>
