<?xml version="1.0" encoding="us-ascii" standalone="no"?><svg xmlns="http://www.w3.org/2000/svg" xmlns:xlink="http://www.w3.org/1999/xlink" contentStyleType="text/css" height="473px" preserveAspectRatio="none" style="width:865px;height:473px;background:#FFFFFF;" version="1.1" viewBox="0 0 865 473" width="865px" zoomAndPan="magnify"><defs/><g><line style="stroke:#181818;stroke-width:0.5;stroke-dasharray:5.0,5.0;" x1="91" x2="91" y1="52.9766" y2="421.3926"/><line style="stroke:#181818;stroke-width:0.5;stroke-dasharray:5.0,5.0;" x1="424.5" x2="424.5" y1="52.9766" y2="421.3926"/><line style="stroke:#181818;stroke-width:0.5;stroke-dasharray:5.0,5.0;" x1="634.5" x2="634.5" y1="52.9766" y2="421.3926"/><line style="stroke:#181818;stroke-width:0.5;stroke-dasharray:5.0,5.0;" x1="801.5" x2="801.5" y1="52.9766" y2="421.3926"/><rect fill="#E2E2F0" height="46.9766" rx="2.5" ry="2.5" style="stroke:#181818;stroke-width:0.5;" width="173" x="5" y="5"/><text fill="#000000" font-family="sans-serif" font-size="14" font-weight="bold" lengthAdjust="spacing" textLength="159" x="12" y="25.5352">EHR Launch Simulator</text><text fill="#000000" font-family="sans-serif" font-size="14" lengthAdjust="spacing" textLength="102" x="40.5" y="42.0234">localhost:8010</text><rect fill="#E2E2F0" height="46.9766" rx="2.5" ry="2.5" style="stroke:#181818;stroke-width:0.5;" width="173" x="5" y="420.3926"/><text fill="#000000" font-family="sans-serif" font-size="14" font-weight="bold" lengthAdjust="spacing" textLength="159" x="12" y="440.9277">EHR Launch Simulator</text><text fill="#000000" font-family="sans-serif" font-size="14" lengthAdjust="spacing" textLength="102" x="40.5" y="457.416">localhost:8010</text><rect fill="#E2E2F0" height="46.9766" rx="2.5" ry="2.5" style="stroke:#181818;stroke-width:0.5;" width="204" x="322.5" y="5"/><text fill="#000000" font-family="sans-serif" font-size="14" font-weight="bold" lengthAdjust="spacing" textLength="156" x="346.5" y="25.5352">CDS App Launch Page</text><text fill="#000000" font-family="sans-serif" font-size="14" lengthAdjust="spacing" textLength="190" x="329.5" y="42.0234">localhost:3000/launch.html</text><rect fill="#E2E2F0" height="46.9766" rx="2.5" ry="2.5" style="stroke:#181818;stroke-width:0.5;" width="204" x="322.5" y="420.3926"/><text fill="#000000" font-family="sans-serif" font-size="14" font-weight="bold" lengthAdjust="spacing" textLength="156" x="346.5" y="440.9277">CDS App Launch Page</text><text fill="#000000" font-family="sans-serif" font-size="14" lengthAdjust="spacing" textLength="190" x="329.5" y="457.416">localhost:3000/launch.html</text><rect fill="#E2E2F0" height="46.9766" rx="2.5" ry="2.5" style="stroke:#181818;stroke-width:0.5;" width="197" x="536.5" y="5"/><text fill="#000000" font-family="sans-serif" font-size="14" font-weight="bold" lengthAdjust="spacing" textLength="49" x="610.5" y="25.5352">CDS UI</text><text fill="#000000" font-family="sans-serif" font-size="14" lengthAdjust="spacing" textLength="183" x="543.5" y="42.0234">localhost:3000/index.html</text><rect fill="#E2E2F0" height="46.9766" rx="2.5" ry="2.5" style="stroke:#181818;stroke-width:0.5;" width="197" x="536.5" y="420.3926"/><text fill="#000000" font-family="sans-serif" font-size="14" font-weight="bold" lengthAdjust="spacing" textLength="49" x="610.5" y="440.9277">CDS UI</text><text fill="#000000" font-family="sans-serif" font-size="14" lengthAdjust="spacing" textLength="183" x="543.5" y="457.416">localhost:3000/index.html</text><rect fill="#E2E2F0" height="46.9766" rx="2.5" ry="2.5" style="stroke:#181818;stroke-width:0.5;" width="116" x="743.5" y="5"/><text fill="#000000" font-family="sans-serif" font-size="14" font-weight="bold" lengthAdjust="spacing" textLength="83" x="760" y="25.5352">FHIR Server</text><text fill="#000000" font-family="sans-serif" font-size="14" lengthAdjust="spacing" textLength="102" x="750.5" y="42.0234">localhost:8080</text><rect fill="#E2E2F0" height="46.9766" rx="2.5" ry="2.5" style="stroke:#181818;stroke-width:0.5;" width="116" x="743.5" y="420.3926"/><text fill="#000000" font-family="sans-serif" font-size="14" font-weight="bold" lengthAdjust="spacing" textLength="83" x="760" y="440.9277">FHIR Server</text><text fill="#000000" font-family="sans-serif" font-size="14" lengthAdjust="spacing" textLength="102" x="750.5" y="457.416">localhost:8080</text><line style="stroke:#181818;stroke-width:1.0;" x1="91.5" x2="133.5" y1="84.2871" y2="84.2871"/><line style="stroke:#181818;stroke-width:1.0;" x1="133.5" x2="133.5" y1="84.2871" y2="97.2871"/><line style="stroke:#181818;stroke-width:1.0;" x1="92.5" x2="133.5" y1="97.2871" y2="97.2871"/><polygon fill="#181818" points="102.5,93.2871,92.5,97.2871,102.5,101.2871,98.5,97.2871" style="stroke:#181818;stroke-width:1.0;"/><text fill="#000000" font-family="sans-serif" font-size="13" lengthAdjust="spacing" textLength="319" x="98.5" y="79.5449">Launch triggered via EHR launch simulator website</text><polygon fill="#181818" points="412.5,122.5977,422.5,126.5977,412.5,130.5977,416.5,126.5977" style="stroke:#181818;stroke-width:1.0;"/><line style="stroke:#181818;stroke-width:1.0;" x1="91.5" x2="418.5" y1="126.5977" y2="126.5977"/><text fill="#000000" font-family="sans-serif" font-size="13" lengthAdjust="spacing" textLength="192" x="98.5" y="121.8555">User redirected to launch page</text><polygon fill="#181818" points="102.5,151.9082,92.5,155.9082,102.5,159.9082,98.5,155.9082" style="stroke:#181818;stroke-width:1.0;"/><line style="stroke:#181818;stroke-width:1.0;" x1="96.5" x2="423.5" y1="155.9082" y2="155.9082"/><text fill="#000000" font-family="sans-serif" font-size="13" lengthAdjust="spacing" textLength="197" x="108.5" y="151.166">Log-in request (authentication)</text><line style="stroke:#181818;stroke-width:1.0;" x1="91.5" x2="133.5" y1="185.2188" y2="185.2188"/><line style="stroke:#181818;stroke-width:1.0;" x1="133.5" x2="133.5" y1="185.2188" y2="198.2188"/><line style="stroke:#181818;stroke-width:1.0;" x1="92.5" x2="133.5" y1="198.2188" y2="198.2188"/><polygon fill="#181818" points="102.5,194.2188,92.5,198.2188,102.5,202.2188,98.5,198.2188" style="stroke:#181818;stroke-width:1.0;"/><text fill="#000000" font-family="sans-serif" font-size="13" lengthAdjust="spacing" textLength="201" x="98.5" y="180.4766">EHR simulator: select encounter</text><polygon fill="#181818" points="623,223.5293,633,227.5293,623,231.5293,627,227.5293" style="stroke:#181818;stroke-width:1.0;"/><line style="stroke:#181818;stroke-width:1.0;" x1="91.5" x2="629" y1="227.5293" y2="227.5293"/><text fill="#000000" font-family="sans-serif" font-size="13" lengthAdjust="spacing" textLength="113" x="98.5" y="222.7871">Log-in completed</text><polygon fill="#181818" points="102.5,252.8398,92.5,256.8398,102.5,260.8398,98.5,256.8398" style="stroke:#181818;stroke-width:1.0;"/><line style="stroke:#181818;stroke-width:1.0;" x1="96.5" x2="634" y1="256.8398" y2="256.8398"/><text fill="#000000" font-family="sans-serif" font-size="13" lengthAdjust="spacing" textLength="365" x="108.5" y="252.0977">Access token request (defines permissions/authorization)</text><polygon fill="#181818" points="623,282.1504,633,286.1504,623,290.1504,627,286.1504" style="stroke:#181818;stroke-width:1.0;"/><line style="stroke:#181818;stroke-width:1.0;stroke-dasharray:2.0,2.0;" x1="91.5" x2="629" y1="286.1504" y2="286.1504"/><text fill="#000000" font-family="sans-serif" font-size="13" lengthAdjust="spacing" textLength="145" x="98.5" y="281.4082">Access token response</text><polygon fill="#181818" points="102.5,311.4609,92.5,315.4609,102.5,319.4609,98.5,315.4609" style="stroke:#181818;stroke-width:1.0;"/><line style="stroke:#181818;stroke-width:1.0;" x1="96.5" x2="634" y1="315.4609" y2="315.4609"/><text fill="#000000" font-family="sans-serif" font-size="13" lengthAdjust="spacing" textLength="97" x="108.5" y="310.7188">Request Patient</text><polygon fill="#181818" points="789.5,340.7715,799.5,344.7715,789.5,348.7715,793.5,344.7715" style="stroke:#181818;stroke-width:1.0;"/><line style="stroke:#181818;stroke-width:1.0;" x1="91.5" x2="795.5" y1="344.7715" y2="344.7715"/><text fill="#000000" font-family="sans-serif" font-size="13" lengthAdjust="spacing" textLength="220" x="98.5" y="340.0293">Proxy request Patient to FHIR sever</text><polygon fill="#181818" points="102.5,370.082,92.5,374.082,102.5,378.082,98.5,374.082" style="stroke:#181818;stroke-width:1.0;"/><line style="stroke:#181818;stroke-width:1.0;stroke-dasharray:2.0,2.0;" x1="96.5" x2="800.5" y1="374.082" y2="374.082"/><text fill="#000000" font-family="sans-serif" font-size="13" lengthAdjust="spacing" textLength="178" x="108.5" y="369.3398">Patient data response (JSON)</text><polygon fill="#181818" points="623,399.3926,633,403.3926,623,407.3926,627,403.3926" style="stroke:#181818;stroke-width:1.0;"/><line style="stroke:#181818;stroke-width:1.0;stroke-dasharray:2.0,2.0;" x1="91.5" x2="629" y1="403.3926" y2="403.3926"/><text fill="#000000" font-family="sans-serif" font-size="13" lengthAdjust="spacing" textLength="218" x="98.5" y="398.6504">Proxy patient data response (JSON)</text><!--SRC=[VP5DJuD048Rl_8f9JvMa5kEbuM12GTCQeqr9RrxMPOIDiBlkBBNwwrsWq0yRppFFyxwpgvcnWWlDf8MHxzylrl34QiaBI4LLbymgu_klibISbOKY6yw2cs04Z63kwLCsJbA8jExv5Sln5BqDWc1QjjFhmbPbguakQJRB2wIG6UuEO7mEFYoMQqZHRF5FvLbNEV6yEKpkO1xs9QqHUOu6CzWA1itrNJ-W_dhumZSI5Zio2c53QC0HmY2t3hIgPxIxs8lw09LFX7IBdpMIXJ6hRO7IzMLMA7ar56aoXx0G24kd1PHSrTAYwVRYmSTLfKjqkLwy5qIS8v6hyO57SHc-2ua46aqbY5maJPiAoeYVGuDEVMOWxPPnyA_tofN3t05TeII4bL6xxo5mFsrUe_q7GlSDNj96E4a_pfXbGmIC7zENvwCYdLB_i_iB]--></g></svg>